HIERARCHY
ROOT Hips
{
  OFFSET -102.467 93.6631 130.069
  CHANNELS 6 Xposition Yposition Zposition Zrotation Xrotation Yrotation
  JOINT LeftUpLeg
  {
    OFFSET 8.64259 1.95398 -2.38835
    CHANNELS 3 Zrotation Xrotation Yrotation
    JOINT LeftLeg
    {
      OFFSET 43.7702 0 0
      CHANNELS 3 Zrotation Xrotation Yrotation
      JOINT LeftFoot
      {
        OFFSET 40.6238 0 0
        CHANNELS 3 Zrotation Xrotation Yrotation
        JOINT LeftToeBase
        {
          OFFSET 12.7242 0 0
          CHANNELS 3 Zrotation Xrotation Yrotation
          End Site
          {
            OFFSET 0 0 0
          }
        }
      }
    }
  }
  JOINT RightUpLeg
  {
    OFFSET -8.2249 1.95398 -2.59336
    CHANNELS 3 Zrotation Xrotation Yrotation
    JOINT RightLeg
    {
      OFFSET 43.5653 0 0
      CHANNELS 3 Zrotation Xrotation Yrotation
      JOINT RightFoot
      {
        OFFSET 40.6238 0 0
        CHANNELS 3 Zrotation Xrotation Yrotation
        JOINT RightToeBase
        {
          OFFSET 12.7242 0 0
          CHANNELS 3 Zrotation Xrotation Yrotation
          End Site
          {
            OFFSET 0 0 0
          }
        }
      }
    }
  }
  JOINT Spine
  {
    OFFSET 0.165834 0.87714 6.61349
    CHANNELS 3 Zrotation Xrotation Yrotation
    JOINT Spine1
    {
      OFFSET 7.38963 1.71661e-005 0
      CHANNELS 3 Zrotation Xrotation Yrotation
      JOINT Spine2
      {
        OFFSET 11.9445 1.14441e-005 0
        CHANNELS 3 Zrotation Xrotation Yrotation
        JOINT Spine3
        {
          OFFSET 14.7254 4.19617e-005 0
          CHANNELS 3 Zrotation Xrotation Yrotation
          JOINT Spine4
          {
            OFFSET 10.9679 0 0
            CHANNELS 3 Zrotation Xrotation Yrotation
            JOINT RightShoulder
            {
              OFFSET 2.46616 -1.6653 3.69651
              CHANNELS 3 Zrotation Xrotation Yrotation
              JOINT RightArm
              {
                OFFSET 13.0012 0 0
                CHANNELS 3 Zrotation Xrotation Yrotation
                JOINT RightForeArm
                {
                  OFFSET 28.7848 1.52588e-005 0
                  CHANNELS 3 Zrotation Xrotation Yrotation
                  JOINT RightHand
                  {
                    OFFSET 26.5688 1.52588e-005 0
                    CHANNELS 3 Zrotation Xrotation Yrotation
                    End Site
                    {
                      OFFSET 0 0 0
                    }
                  }
                }
              }
            }
            JOINT LeftShoulder
            {
              OFFSET 2.38034 -1.29275 -3.7523
              CHANNELS 3 Zrotation Xrotation Yrotation
              JOINT LeftArm
              {
                OFFSET 16.3182 6.10351e-005 0
                CHANNELS 3 Zrotation Xrotation Yrotation
                JOINT LeftForeArm
                {
                  OFFSET 27.0901 0 0
                  CHANNELS 3 Zrotation Xrotation Yrotation
                  JOINT LeftHand
                  {
                    OFFSET 24.5451 1.52588e-005 0
                    CHANNELS 3 Zrotation Xrotation Yrotation
                    End Site
                    {
                      OFFSET 0 0 0
                    }
                  }
                }
              }
            }
            JOINT Neck
            {
              OFFSET 5.0226 -0.0266342 0
              CHANNELS 3 Zrotation Xrotation Yrotation
              JOINT Head
              {
                OFFSET 6.69363 2.86102e-005 0
                CHANNELS 3 Zrotation Xrotation Yrotation
                End Site
                {
                  OFFSET 0 0 0
                }
              }
            }
          }
        }
      }
    }
  }
}
MOTION
Frames:	15
Frame Time:	0.0416667
13.6339 98.4919 -28.7516 -141.073 -87.4547 -139.913 -174.253 2.70133 91.0097 -15.6952 3.90204 2.04295 67.6866 3.27345 -0.848158 28.9811 0.186271 3.12398 175.731 2.61009 89.382 -15.2109 -9.84939 0.00088593 68.6955 -4.94207 0.352441 26.2031 0.899996 2.11661 -0.30695 7.06003 -90.2313 12.7528 -0.720148 -0.367991 1.08187 -0.736046 -0.344784 -21.454 -0.573609 -0.575852 -1.4413 -0.573611 -0.575863 102.428 -50.6948 -81.762 30.508 -13.1396 -8.23457 -0.563964 -8.66101 -12.5494 -11.3385 -0.83748 3.52766 -80.2553 -52.2092 93.2995 -28.9651 9.59335 -17.6024 0.328141 30.4564 -5.69171 -0.336308 -0.104691 -5.16685 10.5364 1.07633 2.14394 -20.5101 1.12465 -3.90079 
13.6209 98.4902 -28.7174 -141.039 -87.5875 -140.056 -174.344 2.49735 90.8251 -15.0666 4.16815 2.00945 67.5846 3.79444 0.235073 29.3573 0.0363869 1.45705 175.641 2.7805 89.2032 -15.3539 -9.98188 0.0288459 68.6299 -4.94943 0.218474 26.723 0.74168 1.79005 -0.332353 7.02958 -90.2306 12.8134 -0.770374 -0.370567 1.14267 -0.785861 -0.334693 -21.3934 -0.623873 -0.583429 -1.38073 -0.623871 -0.583429 102.379 -50.649 -81.837 30.5508 -13.2232 -8.1075 0.135064 -6.64578 -12.3722 -13.5968 -0.81093 1.76892 -79.9589 -52.396 93.7454 -28.9803 9.57203 -17.4689 0.318217 30.5269 -5.7255 -0.85942 -0.09561 -4.77395 9.88993 1.23317 2.074 -19.7699 1.20459 -3.34507 
13.6469 98.4924 -28.6955 -140.721 -87.719 -139.616 -174.375 2.61035 90.8971 -15.071 4.0664 2.08174 67.6499 3.75568 0.0546524 29.2369 0.0505001 1.48744 175.695 2.82749 89.33 -15.2495 -9.82558 0.0507847 68.5693 -4.90532 0.229024 26.5016 0.797622 1.84311 -0.331549 7.03406 -90.2512 12.8066 -0.778534 -0.408797 1.13579 -0.795769 -0.374131 -21.4001 -0.619676 -0.623871 -1.38744 -0.619685 -0.623882 102.396 -50.5438 -81.8105 30.5294 -13.4009 -8.0679 0.0707263 -6.71308 -12.571 -13.1516 -0.81711 2.09182 -79.9643 -52.6529 93.7472 -28.6601 9.68087 -17.5112 0.208891 29.5274 -5.77525 -0.77914 -0.087572 -4.30739 10.2949 0.810051 1.80382 -19.7835 0.751137 -2.67602 
13.6581 98.4862 -28.6652 -139.795 -87.7656 -138.572 -174.322 2.78899 91.0015 -15.3576 4.17664 2.07815 67.8095 3.79674 0.0905257 29.0818 0.0794347 1.68045 175.771 2.61124 89.4506 -14.8643 -9.50112 0.00850201 68.9018 -5.01195 0.609752 25.9533 0.91856 1.8562 -0.323608 7.0346 -90.2763 12.8172 -0.774807 -0.459314 1.1464 -0.79427 -0.424765 -21.3892 -0.600952 -0.670939 -1.37654 -0.600946 -0.670938 102.399 -50.3205 -81.8042 30.7727 -13.1212 -8.05367 -0.161993 -7.23815 -12.4882 -12.5886 -0.745692 1.75383 -79.8933 -52.8256 93.8582 -28.6461 9.56403 -17.4893 0.339194 29.8735 -5.88199 -1.13277 -0.0825025 -4.57324 10.3733 0.79022 1.94674 -19.6252 0.678465 -2.56438 
13.6611 98.4799 -28.6501 -141.116 -87.8294 -139.841 -174.267 2.7683 91.0887 -15.2398 4.53138 2.04992 67.6222 3.81167 0.275832 29.5313 0.0474805 1.86532 175.784 2.59353 89.5065 -14.8127 -9.4205 0.0269434 68.8071 -4.98216 0.540925 25.8685 0.981037 2.18397 -0.336079 7.03504 -90.2845 12.8214 -0.803476 -0.471845 1.15061 -0.82346 -0.436037 -21.3852 -0.624525 -0.691511 -1.37255 -0.624521 -0.691507 102.347 -50.2692 -81.8852 30.8972 -13.0963 -7.99504 -0.141602 -7.28239 -12.4455 -12.8859 -0.757161 1.69249 -79.8421 -52.7648 93.9308 -28.7508 9.44064 -17.4077 0.324237 29.9299 -5.79929 -1.311 -0.0775609 -4.73079 10.3874 0.797285 1.8783 -19.7529 0.690325 -2.4673 
13.671 98.5002 -28.6562 -139.328 -87.7671 -138.074 -174.294 2.74152 91.0305 -15.2219 4.23404 2.06725 67.7558 3.83341 0.19499 29.1192 0.0622774 1.48575 175.8 2.7105 89.4607 -14.9969 -9.49324 -0.018163 68.7094 -4.7406 0.776641 26.2158 0.860972 1.85278 -0.330166 7.03517 -90.2853 12.8046 -0.792146 -0.475536 1.13386 -0.812304 -0.440221 -21.4019 -0.612612 -0.691624 -1.38923 -0.612609 -0.691625 102.334 -50.227 -81.9053 30.9966 -12.9959 -8.00879 -0.249778 -7.33565 -12.5452 -12.5807 -0.725237 1.56334 -79.798 -52.7644 93.9964 -28.8549 9.30635 -17.3727 0.452329 30.0089 -5.85983 -1.65397 -0.072755 -4.72117 10.5933 0.822369 2.02556 -19.9671 0.711028 -2.67457 
13.6768 98.491 -28.6547 -140.888 -87.7971 -139.601 -174.366 2.76221 91.0353 -15.2709 4.04708 2.15388 67.7471 3.70921 -0.0952909 29.3285 0.0475874 1.58205 175.748 2.60132 89.4856 -14.8517 -9.49441 0.0590208 68.7651 -4.92106 0.587479 26.0277 0.886198 1.73991 -0.332131 7.03406 -90.2936 12.8042 -0.799995 -0.491259 1.13345 -0.820847 -0.455582 -21.4023 -0.615367 -0.70898 -1.38961 -0.615376 -0.708991 102.376 -50.2053 -81.8397 31.0292 -12.9795 -8.04486 -0.237165 -7.42714 -12.4318 -12.7872 -0.722506 1.42295 -79.8468 -52.756 93.924 -28.8112 9.43359 -17.3438 0.373409 29.792 -5.83582 -1.04648 -0.0680964 -4.40962 10.4618 0.781668 2.03286 -19.8429 0.663912 -2.63918 
13.6521 98.4904 -28.6507 -138.604 -87.7178 -137.405 -174.306 2.71633 90.9844 -15.2248 4.135 2.05109 67.7171 3.79346 0.16306 29.1224 0.0696996 1.59547 175.753 2.73903 89.4015 -15.0698 -9.60456 0.0130994 68.7035 -4.82243 0.618154 26.5105 0.788723 1.79517 -0.329797 7.03405 -90.2826 12.797 -0.790165 -0.470958 1.12624 -0.810128 -0.435731 -21.4095 -0.612096 -0.686661 -1.39685 -0.612101 -0.686668 102.32 -50.2909 -81.9279 30.9261 -13.1284 -8.05153 -0.24401 -7.50565 -12.5249 -12.7416 -0.731084 1.52897 -79.7268 -52.6922 94.0986 -28.8137 9.52103 -17.4229 0.359603 29.7488 -5.85868 -0.694392 -0.0635356 -4.31769 10.4796 0.829551 1.9899 -19.8533 0.726569 -2.68115 
13.6774 98.4999 -28.6515 -140.97 -87.8424 -139.649 -174.27 2.77456 91.1057 -15.2241 4.446 2.07684 67.5828 3.79038 0.283391 29.6032 0.00399102 1.36423 175.869 2.60112 89.5828 -14.8101 -9.39771 -0.0466501 68.6889 -4.85256 0.612432 26.1549 0.845775 1.64556 -0.336174 7.03446 -90.2973 12.8006 -0.809827 -0.497671 1.12983 -0.830955 -0.461554 -21.4059 -0.622829 -0.718046 -1.39323 -0.622832 -0.718058 102.418 -50.2769 -81.7752 30.8842 -13.2324 -8.17641 -0.23339 -7.69958 -12.4357 -12.821 -0.745634 1.62133 -79.8269 -52.8885 93.9579 -28.5988 9.39659 -17.4476 0.432896 29.8364 -5.88393 -0.697423 -0.0590775 -4.48177 10.0982 0.774163 1.60554 -19.3276 0.693352 -2.22741 
13.678 98.4873 -28.6628 -139.74 -87.7406 -138.435 -174.271 2.75066 91.093 -15.2686 4.12249 2.08126 67.7973 3.75823 -0.0170613 29.0802 0.0684592 1.51292 175.797 2.68918 89.5012 -15.0357 -9.46413 0.00444948 68.8371 -4.84369 0.753605 25.9675 0.894279 1.69974 -0.333827 7.03638 -90.2908 12.7941 -0.802082 -0.485875 1.12328 -0.82269 -0.450116 -21.4124 -0.618969 -0.704472 -1.3998 -0.618981 -0.704482 102.336 -50.2862 -81.9026 30.9195 -13.1862 -8.15005 -0.167708 -7.47301 -12.4133 -12.9685 -0.743341 1.51948 -79.7246 -52.6445 94.1005 -28.9377 9.33335 -17.4211 0.522647 29.7547 -5.87561 -0.333918 -0.0547704 -4.34198 10.2891 0.713173 1.87735 -19.6571 0.619103 -2.54994 
13.6805 98.487 -28.6675 -140.247 -87.7456 -138.962 -174.249 2.78975 91.0926 -15.3735 4.27611 2.04964 67.7537 3.75937 0.0741254 29.4351 0.0406336 1.63607 175.829 2.67588 89.5061 -15.0161 -9.40652 -0.0376804 68.8023 -4.78958 0.782836 26.0978 0.8581 1.64474 -0.333694 7.03844 -90.2862 12.7841 -0.799611 -0.477249 1.11332 -0.819839 -0.441602 -21.4224 -0.619215 -0.695506 -1.40979 -0.619214 -0.695504 102.373 -50.303 -81.8444 30.8686 -13.1995 -8.2129 -0.183657 -7.60551 -12.3932 -12.9664 -0.744923 1.53544 -79.7547 -52.7251 94.0588 -28.7662 9.37124 -17.4358 0.515848 29.7095 -5.95648 -0.407041 -0.0505827 -4.32419 10.2943 0.747138 1.68932 -19.6337 0.679184 -2.43295 
13.6767 98.4933 -28.6826 -137.509 -87.6326 -136.246 -174.249 2.71475 91.0523 -15.264 4.12314 2.0405 67.7363 3.79291 0.176207 29.2215 0.0438997 1.36793 175.826 2.69617 89.4771 -15.0093 -9.66066 -0.0405802 68.7531 -4.911 0.598394 26.1679 0.858991 1.7626 -0.328573 7.04078 -90.2695 12.7747 -0.78147 -0.446306 1.10394 -0.800357 -0.411489 -21.4319 -0.61121 -0.66054 -1.41921 -0.611214 -0.660547 102.362 -50.4995 -81.8631 30.6989 -13.3224 -8.23813 -0.0671051 -7.20418 -12.4107 -12.8303 -0.736071 1.52678 -79.6898 -52.4175 94.144 -29.1252 9.24444 -17.3882 0.638609 29.7788 -5.92092 -0.443145 -0.0465141 -4.50868 10.4918 0.657001 1.57642 -19.6671 0.624959 -2.51145 
13.6987 98.4966 -28.6877 -137.433 -87.6977 -136.237 -174.279 2.71866 90.9802 -15.1534 4.21808 2.01152 67.5745 3.81879 0.377591 29.4905 -0.00614736 1.05937 175.751 2.73766 89.3765 -14.9927 -9.68633 0.0108823 68.6395 -4.73636 0.714389 26.3378 0.768341 1.37763 -0.336836 7.04222 -90.2598 12.7868 -0.793193 -0.424786 1.11601 -0.811115 -0.389471 -21.4199 -0.628863 -0.643537 -1.40729 -0.628861 -0.643546 102.318 -50.5376 -81.9311 30.789 -13.1318 -8.11754 -0.157107 -7.24779 -12.5111 -12.8197 -0.765962 1.81156 -79.6632 -52.3368 94.1807 -29.2262 9.23051 -17.3427 0.706601 29.8329 -6.01035 -0.601982 -0.0426061 -4.27313 10.6379 0.644329 1.62099 -19.9265 0.630022 -2.68472 
13.6781 98.49 -28.6874 -136.579 -87.6365 -135.3 -174.253 2.74009 91.0713 -15.2483 3.98855 2.05492 67.7807 3.7354 -0.0590486 29.0997 0.0790503 1.69813 175.832 2.69552 89.4944 -14.952 -9.58819 -0.0346296 68.7536 -4.87998 0.65936 26.0598 0.916459 2.0107 -0.329321 7.04194 -90.2701 12.7886 -0.783169 -0.446507 1.11782 -0.802067 -0.411607 -21.418 -0.612778 -0.661236 -1.40534 -0.612773 -0.66124 102.378 -50.4671 -81.8386 30.7743 -13.2798 -8.15537 -0.132605 -7.46282 -12.3678 -12.7965 -0.758306 1.75347 -79.6742 -52.5747 94.1724 -28.9687 9.13784 -17.3324 0.668475 29.7622 -5.94636 -0.760187 -0.0388217 -4.24999 10.5754 0.710098 1.67365 -19.9241 0.673464 -2.61307 
13.6891 98.4906 -28.6831 -136.672 -87.6045 -135.443 -174.315 2.70242 90.9864 -15.2549 4.13072 2.0717 67.6607 3.76704 0.223344 29.363 0.0460344 1.61186 175.776 2.7677 89.4128 -15.1474 -9.70957 -0.00860805 68.817 -4.82123 0.721118 26.156 0.824451 1.4907 -0.322987 7.04222 -90.2567 12.7957 -0.764161 -0.421685 1.12487 -0.781977 -0.387648 -21.411 -0.602097 -0.63185 -1.39831 -0.602104 -0.631854 102.389 -50.62 -81.8214 30.6846 -13.2627 -8.12879 -0.05092 -7.26874 -12.2942 -12.9537 -0.761754 1.6974 -79.7362 -52.4001 94.0749 -29.0342 9.20377 -17.2507 0.660123 29.5155 -6.00238 -0.715499 -0.0351734 -4.30341 10.5297 0.721095 1.72564 -20.0132 0.714273 -2.89379 
